<?xml version="1.0" encoding="utf-8"?>
<!-- Generator: Adobe Illustrator 18.0.0, SVG Export Plug-In . SVG Version: 6.00 Build 0)  -->
<!DOCTYPE svg PUBLIC "-//W3C//DTD SVG 1.1//EN" "http://www.w3.org/Graphics/SVG/1.1/DTD/svg11.dtd">
<svg version="1.1" id="Layer_1" xmlns="http://www.w3.org/2000/svg" xmlns:xlink="http://www.w3.org/1999/xlink" x="0px" y="0px"
	 viewBox="0 0 50 50" enable-background="new 0 0 50 50" xml:space="preserve">
<g>
	<path fill="#FFFFFF" d="M25,0C11.2,0,0,11.2,0,25s11.2,25,25,25s25-11.2,25-25S38.8,0,25,0z M25,47.3c-12.3,0-22.3-10-22.3-22.3
		c0-12.3,10-22.3,22.3-22.3c12.3,0,22.3,10,22.3,22.3C47.3,37.3,37.3,47.3,25,47.3z"/>
</g>
<g>
	<path fill="#FFFFFF" d="M17.6,18.3l5.3,5.3L9.6,36.9c0.6,0.8,1.3,1.5,2,2.2L25,25.7l13.4,13.4c0.7-0.7,1.4-1.4,2-2.2L27.1,23.5
		l5.3-5.3l11.5,11.5c0.3-1.2,0.5-2.4,0.6-3.7L34,15.7c-0.4-0.4-1-0.7-1.6-0.7c-0.6,0-1.2,0.2-1.6,0.7L25,21.4l-5.8-5.8
		c-0.4-0.4-1-0.7-1.6-0.7s-1.2,0.2-1.6,0.7L5.6,26.1c0.1,1.3,0.3,2.5,0.6,3.7L17.6,18.3z"/>
</g>
</svg>
